<?xml version="1.0" encoding="utf-8"?>
<!-- Generator: Adobe Illustrator 16.0.0, SVG Export Plug-In . SVG Version: 6.00 Build 0)  -->
<!DOCTYPE svg PUBLIC "-//W3C//DTD SVG 1.1//EN" "http://www.w3.org/Graphics/SVG/1.1/DTD/svg11.dtd">
<svg version="1.1" id="Layer_1" xmlns="http://www.w3.org/2000/svg" xmlns:xlink="http://www.w3.org/1999/xlink" x="0px" y="0px"
	 width="130px" height="40px" viewBox="0 0 130 40" enable-background="new 0 0 130 40" xml:space="preserve">
<g>
	<path fill="#424242" d="M4.543,12.677c0,0.936,0.078,1.751,0.234,2.444c0.156,0.694,0.338,1.274,0.546,1.742
		c0.208,0.468,0.407,0.841,0.598,1.118c0.19,0.278,0.338,0.503,0.442,0.676c-1.942,0-3.467-0.494-4.576-1.482
		c-1.11-0.988-1.664-2.504-1.664-4.55c0-1.733,0.442-3.362,1.326-4.888c0.884-1.525,2.08-2.851,3.588-3.978
		c1.508-1.126,3.276-2.019,5.304-2.678c2.028-0.658,4.186-0.988,6.474-0.988c2.045,0,3.822,0.252,5.33,0.754
		c1.508,0.503,2.756,1.188,3.744,2.054c0.988,0.867,1.724,1.855,2.21,2.964c0.485,1.11,0.728,2.254,0.728,3.432
		c0,1.318-0.347,2.626-1.04,3.926c-0.694,1.3-1.699,2.401-3.016,3.302c2.669,0.278,4.81,1.335,6.422,3.172
		c1.612,1.838,2.418,4.402,2.418,7.695c0,1.11-0.122,2.385-0.364,3.822c-0.243,1.439-0.685,2.809-1.326,4.108
		c-0.642,1.3-1.534,2.401-2.678,3.302c-1.144,0.901-2.6,1.352-4.368,1.352c-0.763,0-1.491-0.096-2.184-0.285
		c-0.694-0.191-1.309-0.469-1.846-0.832c-0.538-0.364-0.962-0.832-1.274-1.404s-0.468-1.222-0.468-1.949
		c0-0.209,0.017-0.494,0.052-0.858c0.034-0.364,0.086-0.667,0.156-0.91c0.485,0.763,1.092,1.292,1.82,1.586
		c0.728,0.295,1.404,0.442,2.028,0.442c0.866,0,1.586-0.242,2.158-0.729c0.572-0.484,1.014-1.109,1.326-1.872
		c0.312-0.762,0.528-1.603,0.65-2.522c0.121-0.918,0.182-1.828,0.182-2.729c0-3.293-0.629-5.668-1.889-7.124
		c-1.26-1.456-3.01-2.184-5.251-2.184c-0.415,0-0.932,0.018-1.553,0.052c-0.621,0.035-1.224,0.087-1.811,0.156v20.28h-5.668V5.761
		l5.668-0.78v11.752h0.723c0.964,0,1.868-0.234,2.711-0.702s1.575-1.083,2.194-1.846c0.62-0.762,1.102-1.603,1.446-2.522
		c0.345-0.918,0.517-1.828,0.517-2.73c0-2.045-0.694-3.718-2.08-5.018c-1.387-1.3-3.45-1.95-6.188-1.95
		c-1.491,0-2.947,0.217-4.368,0.65c-1.422,0.434-2.678,1.092-3.77,1.976C7.065,5.475,6.189,6.593,5.531,7.945
		C4.873,9.297,4.543,10.875,4.543,12.677z"/>
	<path fill="#424242" d="M54.047,13.093v17.68c0,0.347,0.018,0.779,0.052,1.3s0.131,1.032,0.286,1.534
		c0.156,0.503,0.391,0.936,0.702,1.3c0.312,0.364,0.745,0.546,1.3,0.546c1.698,0,2.946-1.889,3.744-5.668h1.924
		c-0.382,2.184-0.866,3.909-1.456,5.174c-0.59,1.266-1.214,2.229-1.871,2.887c-0.659,0.658-1.335,1.084-2.028,1.273
		c-0.694,0.19-1.318,0.286-1.872,0.286c-0.798,0-1.482-0.14-2.054-0.416c-0.572-0.276-1.059-0.642-1.456-1.092
		c-0.399-0.45-0.72-0.97-0.962-1.56c-0.243-0.59-0.434-1.197-0.572-1.82c-0.659,1.699-1.526,2.938-2.6,3.718
		c-1.075,0.78-2.202,1.17-3.38,1.17c-1.006,0-1.959-0.14-2.86-0.416c-0.902-0.276-1.682-0.736-2.34-1.378
		c-0.659-0.641-1.179-1.473-1.56-2.496c-0.382-1.021-0.572-2.279-0.572-3.77V13.093h5.2v17.68c0,1.699,0.294,2.904,0.884,3.613
		c0.589,0.711,1.334,1.066,2.236,1.066c0.485,0,0.97-0.13,1.456-0.39c0.485-0.261,0.918-0.632,1.3-1.118
		c0.381-0.485,0.693-1.074,0.936-1.768c0.242-0.693,0.364-1.49,0.364-2.393V13.093H54.047z"/>
	<path fill="#424242" d="M79.267,13.093v17.68c0,0.347,0.017,0.779,0.052,1.3c0.034,0.521,0.13,1.032,0.286,1.534
		c0.156,0.503,0.39,0.936,0.702,1.3c0.312,0.364,0.745,0.546,1.3,0.546c1.698,0,2.946-1.889,3.744-5.668h1.924
		c-0.382,2.184-0.867,3.909-1.456,5.174c-0.59,1.266-1.214,2.229-1.872,2.887c-0.659,0.658-1.335,1.084-2.027,1.273
		c-0.694,0.19-1.318,0.286-1.872,0.286c-0.798,0-1.482-0.14-2.055-0.416c-0.571-0.276-1.058-0.642-1.456-1.092
		s-0.72-0.97-0.962-1.56s-0.434-1.214-0.571-1.873c-0.521,1.353-1.361,2.514-2.522,3.484c-1.162,0.971-2.574,1.456-4.238,1.456
		c-1.04,0-2.089-0.208-3.146-0.624c-1.058-0.416-2.011-1.1-2.86-2.055c-0.85-0.952-1.543-2.184-2.08-3.691
		c-0.538-1.508-0.806-3.354-0.806-5.538c0-1.594,0.182-3.258,0.546-4.991c0.364-1.734,0.944-3.311,1.742-4.732
		c0.797-1.421,1.82-2.6,3.067-3.536c1.248-0.936,2.757-1.404,4.524-1.404c0.416,0,0.858,0.043,1.326,0.127
		c0.468,0.085,0.918,0.23,1.352,0.434c0.434,0.205,0.841,0.485,1.223,0.843c0.381,0.357,0.692,0.792,0.936,1.302v-2.446H79.267z
		 M69.543,35.453c0.52,0,1.048-0.146,1.586-0.443c0.537-0.295,1.021-0.695,1.456-1.199c0.433-0.503,0.788-1.103,1.065-1.799
		c0.277-0.693,0.416-1.441,0.416-2.241V17.883c-0.243-0.556-0.616-1.067-1.118-1.537c-0.503-0.47-1.152-0.705-1.95-0.705
		c-1.109,0-2.062,0.374-2.859,1.122c-0.798,0.748-1.439,1.686-1.924,2.815c-0.486,1.129-0.841,2.364-1.066,3.702
		s-0.338,2.615-0.338,3.832c0,2.99,0.407,5.127,1.222,6.413S68.017,35.453,69.543,35.453z"/>
	<path fill="#424242" d="M90.55,2.693v28.08c0,0.347,0.018,0.779,0.053,1.3c0.034,0.521,0.13,1.032,0.286,1.534
		c0.155,0.503,0.39,0.936,0.701,1.3c0.312,0.364,0.745,0.546,1.301,0.546c1.697,0,2.945-1.889,3.743-5.668h1.925
		c-0.382,2.184-0.867,3.909-1.456,5.174c-0.59,1.266-1.214,2.229-1.872,2.887c-0.659,0.658-1.335,1.084-2.028,1.273
		c-0.693,0.19-1.317,0.286-1.872,0.286c-1.214,0-2.202-0.233-2.964-0.702c-0.763-0.468-1.37-1.066-1.82-1.794
		s-0.763-1.542-0.936-2.444c-0.174-0.9-0.26-1.768-0.26-2.6V3.421L90.55,2.693z"/>
	<path fill="#424242" d="M115.718,13.093v17.68c0,0.416,0.017,0.893,0.052,1.43c0.034,0.538,0.13,1.049,0.286,1.534
		s0.398,0.894,0.729,1.222c0.328,0.33,0.806,0.494,1.43,0.494c0.277,0,0.58-0.034,0.91-0.104c0.329-0.069,0.598-0.139,0.806-0.209
		c0.034,0.174,0.061,0.33,0.078,0.469c0.017,0.139,0.026,0.295,0.026,0.468c0,1.04-0.399,1.854-1.196,2.444
		c-0.798,0.589-1.699,0.884-2.704,0.884c-1.075,0-2.046-0.372-2.912-1.118c-0.867-0.745-1.456-2.002-1.768-3.77
		c-0.521,1.352-1.37,2.504-2.549,3.457c-1.179,0.955-2.6,1.431-4.264,1.431c-1.04,0-2.089-0.217-3.146-0.649
		c-1.059-0.434-2.002-1.119-2.834-2.055s-1.518-2.148-2.055-3.641c-0.538-1.489-0.806-3.293-0.806-5.407
		c0-1.629,0.182-3.319,0.546-5.069c0.364-1.751,0.937-3.346,1.716-4.785c0.78-1.438,1.794-2.626,3.042-3.562
		s2.738-1.404,4.473-1.404c0.9,0,1.828,0.188,2.781,0.561c0.953,0.375,1.673,1.09,2.158,2.145v-2.446H115.718z M105.733,35.453
		c0.658,0,1.282-0.156,1.872-0.469c0.589-0.312,1.101-0.729,1.534-1.251c0.434-0.522,0.771-1.122,1.014-1.8
		c0.242-0.677,0.364-1.398,0.364-2.163V17.883c-0.243-0.59-0.606-1.112-1.092-1.564c-0.486-0.452-1.179-0.678-2.08-0.678
		c-1.11,0-2.046,0.374-2.808,1.122c-0.764,0.748-1.388,1.694-1.872,2.841c-0.486,1.147-0.841,2.424-1.066,3.832
		c-0.226,1.408-0.338,2.756-0.338,4.041c0,2.816,0.433,4.849,1.3,6.1C103.428,34.828,104.485,35.453,105.733,35.453z M107.762,0.093
		h4.42l-4.212,9.828h-2.86L107.762,0.093z"/>
	<path fill="#1F9DD8" d="M122.893,35.922c0-0.937,0.329-1.751,0.988-2.445c0.658-0.692,1.474-1.039,2.444-1.039
		c0.936,0,1.75,0.347,2.443,1.039c0.693,0.694,1.04,1.509,1.04,2.445c0,0.971-0.347,1.785-1.04,2.443
		c-0.693,0.659-1.508,0.988-2.443,0.988c-0.971,0-1.786-0.329-2.444-0.988C123.222,37.707,122.893,36.893,122.893,35.922z
		 M124.817,27.081l-1.456-24.388h5.823l-1.611,24.388H124.817z"/>
</g>
</svg>
